<?xml version="1.0" encoding="utf-8"?>
<!-- Generator: Adobe Illustrator 26.5.0, SVG Export Plug-In . SVG Version: 6.00 Build 0)  -->
<svg version="1.1" id="Layer_1" xmlns="http://www.w3.org/2000/svg" xmlns:xlink="http://www.w3.org/1999/xlink" x="0px" y="0px"
	 viewBox="0 0 500 500" style="enable-background:new 0 0 500 500;" xml:space="preserve">
<style type="text/css">
	.st0{fill:#F4F3F4;}
	.st1{fill:#8E8E8E;}
	.st2{fill:none;stroke:#C6C6C6;stroke-miterlimit:10;}
	.st3{fill:#C6C6C6;}
</style>
<g>
	<rect x="-0.01" class="st0" width="500" height="500"/>
</g>
<g>
	<path class="st1" d="M390.45,257.49h-280.9c-4.14,0-7.49-3.35-7.49-7.49l0,0c0-4.14,3.35-7.49,7.49-7.49h280.89
		c4.14,0,7.49,3.35,7.49,7.49l0,0C397.93,254.14,394.57,257.49,390.45,257.49z"/>
	<g>
		<path class="st3" d="M405.07,260.78H94.93c-4.41,0-7.99-3.58-7.99-7.99v-5.58c0-4.41,3.58-7.99,7.99-7.99h310.15
			c4.41,0,7.99,3.58,7.99,7.99v5.58C413.05,257.2,409.48,260.78,405.07,260.78z M94.93,240.22c-3.85,0-6.99,3.14-6.99,6.99v5.58
			c0,3.85,3.14,6.99,6.99,6.99h310.15c3.85,0,6.99-3.14,6.99-6.99v-5.58c0-3.85-3.14-6.99-6.99-6.99H94.93L94.93,240.22z"/>
	</g>
	<path class="st3" d="M386.58,255.22H364.6c-2.94,0-5.33-2.39-5.33-5.33l0,0c0-2.94,2.39-5.33,5.33-5.33h21.99
		c2.94,0,5.33,2.39,5.33,5.33l0,0C391.92,252.84,389.52,255.22,386.58,255.22z"/>
</g>
</svg>
