<?xml version="1.0" encoding="utf-8"?>
<!-- Generator: Adobe Illustrator 26.5.0, SVG Export Plug-In . SVG Version: 6.00 Build 0)  -->
<svg version="1.1" id="Layer_1" xmlns="http://www.w3.org/2000/svg" xmlns:xlink="http://www.w3.org/1999/xlink" x="0px" y="0px"
	 viewBox="0 0 500 500" style="enable-background:new 0 0 500 500;" xml:space="preserve">
<style type="text/css">
	.st0{fill:#F4F3F4;}
	.st1{fill:#8E8E8E;}
	.st2{fill:none;stroke:#C6C6C6;stroke-miterlimit:10;}
	.st3{fill:#C6C6C6;}
</style>
<g>
	<rect x="0" class="st0" width="500" height="500"/>
</g>
<g>
	<g>
		<path class="st1" d="M128.05,165.24l-37,171.5c-0.54,2.53-3.03,4.13-5.56,3.59l0,0c-2.53-0.54-4.13-3.03-3.59-5.56l37-171.5
			c0.54-2.53,3.03-4.13,5.56-3.59l0,0C126.99,160.21,128.6,162.71,128.05,165.24z"/>
		<g>
			<path class="st3" d="M131.99,156.74L91.13,346.1c-0.58,2.69-3.24,4.41-5.93,3.83l-3.41-0.73c-2.69-0.58-4.41-3.24-3.83-5.93
				l40.86-189.36c0.58-2.69,3.24-4.41,5.93-3.83l3.41,0.73C130.85,151.38,132.57,154.04,131.99,156.74z M78.58,343.39
				c-0.51,2.35,0.99,4.68,3.35,5.19l3.41,0.73c2.35,0.51,4.68-0.99,5.19-3.35l40.86-189.36c0.51-2.35-0.99-4.68-3.35-5.19
				l-3.41-0.73c-2.35-0.51-4.68,0.99-5.19,3.35L78.58,343.39z"/>
		</g>
		<path class="st3" d="M126.16,167.28l-2.9,13.42c-0.39,1.8-2.16,2.94-3.96,2.55l0,0c-1.8-0.39-2.94-2.16-2.55-3.96l2.9-13.42
			c0.39-1.8,2.16-2.94,3.96-2.55l0,0C125.4,163.72,126.55,165.49,126.16,167.28z"/>
	</g>
	<g>
		<path class="st1" d="M371.95,165.24l37,171.5c0.54,2.53,3.03,4.13,5.56,3.59l0,0c2.53-0.54,4.13-3.03,3.59-5.56l-37-171.5
			c-0.54-2.53-3.03-4.13-5.56-3.59l0,0C373.01,160.21,371.4,162.71,371.95,165.24z"/>
		<g>
			<path class="st3" d="M371.84,150.8l3.41-0.73c2.69-0.58,5.35,1.14,5.93,3.83l40.86,189.36c0.58,2.69-1.14,5.35-3.83,5.93
				l-3.41,0.73c-2.69,0.58-5.35-1.14-5.93-3.83l-40.86-189.36C367.43,154.04,369.15,151.38,371.84,150.8z M380.57,154.02
				c-0.51-2.35-2.84-3.85-5.19-3.35l-3.41,0.73c-2.35,0.51-3.85,2.84-3.35,5.19l40.86,189.36c0.51,2.35,2.84,3.85,5.19,3.35
				l3.41-0.73c2.35-0.51,3.85-2.84,3.35-5.19L380.57,154.02z"/>
		</g>
		<path class="st3" d="M373.84,167.28l2.9,13.42c0.39,1.8,2.16,2.94,3.96,2.55l0,0c1.8-0.39,2.94-2.16,2.55-3.96l-2.9-13.42
			c-0.39-1.8-2.16-2.94-3.96-2.55l0,0C374.6,163.72,373.45,165.49,373.84,167.28z"/>
	</g>
</g>
</svg>
