<?xml version="1.0" encoding="utf-8"?>
<!-- Generator: Adobe Illustrator 26.5.0, SVG Export Plug-In . SVG Version: 6.00 Build 0)  -->
<svg version="1.1" id="Layer_1" xmlns="http://www.w3.org/2000/svg" xmlns:xlink="http://www.w3.org/1999/xlink" x="0px" y="0px"
	 viewBox="0 0 500 500" style="enable-background:new 0 0 500 500;" xml:space="preserve">
<style type="text/css">
	.st0{fill:#F4F3F4;}
	.st1{fill:#8E8E8E;}
	.st2{fill:none;stroke:#C6C6C6;stroke-miterlimit:10;}
	.st3{fill:#C6C6C6;}
</style>
<g>
	<rect x="0.63" class="st0" width="500" height="500"/>
</g>
<path class="st1" d="M126.5,139.1h247.74c4.95,0,9.34,3.16,10.91,7.85l46.38,138.7c0.81,2.43,0.79,5.06-0.06,7.48l-16.03,45.37
	c-1.39,3.93-4.78,6.8-8.89,7.5l-313.34-0.05c-3.98-0.78-7.24-3.61-8.6-7.43l-16.07-45.17c-0.87-2.44-0.89-5.1-0.06-7.55l47.13-138.9
	C117.19,142.24,121.57,139.1,126.5,139.1z"/>
<polygon class="st2" points="124.79,144.64 376.35,144.64 378.42,149.02 122.84,149.02 "/>
<path class="st2" d="M77.42,289.8c4.46,12.03,14.58,39.17,16.56,44.48c0.21,0.56,0.71,0.97,1.3,1.06l308.21,0.15
	c0.62-0.07,1.15-0.47,1.37-1.06l18.37-47.75c0.45-1.18,2.01-1.44,2.82-0.47l0.32,0.38c0.72,0.85,0.93,2.02,0.56,3.07l-17.35,49.39
	c-0.21,0.59-0.73,1.01-1.35,1.1l-316.03-0.1c-0.59-0.1-1.08-0.5-1.29-1.05l-18.19-48.06c-0.16-0.41-0.14-0.87,0.04-1.27l0,0
	C73.71,287.61,76.64,287.7,77.42,289.8z"/>
<line class="st2" x1="149.17" y1="144.64" x2="84.28" y2="321.4"/>
<line class="st2" x1="351.15" y1="144.64" x2="416.03" y2="321.4"/>
</svg>
