<?xml version="1.0" encoding="UTF-8" standalone="no"?>
<!-- Created with Inkscape (http://www.inkscape.org/) -->

<svg
   width="793.70081"
   height="1122.5197"
   viewBox="0 0 210 296.99999"
   version="1.1"
   id="svg1"
   sodipodi:docname="растровый.svg"
   inkscape:version="1.3.2 (091e20e, 2023-11-25, custom)"
   xmlns:inkscape="http://www.inkscape.org/namespaces/inkscape"
   xmlns:sodipodi="http://sodipodi.sourceforge.net/DTD/sodipodi-0.dtd"
   xmlns="http://www.w3.org/2000/svg"
   xmlns:svg="http://www.w3.org/2000/svg">
  <sodipodi:namedview
     id="namedview1"
     pagecolor="#ffffff"
     bordercolor="#000000"
     borderopacity="0.25"
     inkscape:showpageshadow="2"
     inkscape:pageopacity="0.0"
     inkscape:pagecheckerboard="0"
     inkscape:deskcolor="#d1d1d1"
     inkscape:zoom="0.090532936"
     inkscape:cx="3606.4223"
     inkscape:cy="2987.8629"
     inkscape:window-width="1920"
     inkscape:window-height="1009"
     inkscape:window-x="-8"
     inkscape:window-y="-8"
     inkscape:window-maximized="1"
     inkscape:current-layer="layer1" />
  <defs
     id="defs1" />
  <g
     id="layer1"
     transform="translate(-12.399156,-433.97045)">
    <path
       id="chestColor"
       stroke="#000000"
       d="m 1046.2,862.83 c 1.42,-9.09 1.71,-14.53 5.29,-30.86 3.58,-16.33 7.02,-22.96 10.21,-32.52 3.19,-9.56 12.52,-32.25 12.52,-32.48 -0.3,-5.59 -3.35,-10.81 -5.52,-15.5 -2.16,-4.7 -5.22,-10.73 -8.05,-17.96 -2.83,-7.23 -3.15,-11.09 -6.61,-31.1 -3.47,-20.01 -9.89,-39.02 -11.35,-42.82 -1.45,-3.8 -4.02,-9.34 -7.6,-15.48 -3.58,-6.15 -14.09,-25.88 -18.06,-34.94 -3.97,-9.06 -9.93,-19.51 -12.06,-23.42 -2.12,-3.91 -4.84,-8.5 -10.92,-16.06 -6.07,-7.57 -12.97,-15.02 -20.83,-24.04 -7.86,-9.02 -8.94,-10.02 -12.78,-13.79 -3.84,-3.77 -12.15,-12.71 -18.45,-18.78 -6.3,-6.07 -17.22,-14.87 -17.22,-14.87 0,0 -72.89,17.29 -89.66,21.54 -16.77,4.25 -33.47,4.92 -42.93,5.59 -9.47,0.67 -28.47,6.07 -37.57,8.01 -9.09,1.94 -21.54,2.72 -26.57,2.12 -5.03,-0.6 -8.24,-2.72 -11.79,-3.73 -3.55,-1.01 -11.49,-7.1 -13.81,-8.55 -2.32,-1.45 -5.53,-3.38 -5.53,-3.38 0,0 -2.93,1.54 -6.62,3.05 -3.69,1.51 -27.61,4.25 -38.12,4.25 -10.51,0 -22.42,-1.45 -38.12,-5.53 -15.7,-4.08 -21.24,-5.7 -33.54,-8.5 -12.3,-2.8 -31.02,-9.95 -31.02,-9.95 l -1.4,1.57 c -1.51,2.01 -7.27,7.32 -11.91,11.52 -4.64,4.2 -1.66,1.9 -10.9,10.4 -9.24,8.5 -19.23,20.57 -25.79,30.11 -6.56,9.54 -22.17,28.02 -28.66,36.63 -6.48,8.61 -16.55,24.93 -20.46,31.86 -3.91,6.93 -19.57,31.75 -26.39,44.27 -6.82,12.52 -13.19,26.39 -16.84,34.29 -3.65,7.9 -6.63,15.35 -12.89,30.56 -6.26,15.2 -9.09,30.34 -8.94,33.39 0.15,3.06 1.57,5.37 4.7,14.61 3.13,9.24 12.97,56.42 14.1,65.89 1.13,9.47 0.51,42.34 0,53.22 -0.51,10.88 1.18,44.42 0.51,54.26 -0.67,9.84 -2.61,20.65 -3.65,31.75 -1.04,11.11 -1.19,27.73 -1.57,41.89 -0.38,14.16 -0.07,26.46 -0.07,26.46 0,0 -0.15,5.81 -1.04,16.84 -0.89,11.03 -3.47,145.57 -3.47,164.57 0,19 2.01,28.4 2.12,44.94 0.11,16.55 1.79,48.07 1.57,75.24 -0.22,27.17 -2.01,82.12 -2.24,92.91 -0.22,10.79 -1.79,31.08 -0.25,35.89 2.79,7.91 14,15.58 14.5,16.1 0.5,0.52 0.44,0.91 0.44,0.91 -0.1,1.82 0.37,3.23 0.93,4.24 0.09,0 0.18,0.02 0.27,0.06 4.26,2 29.23,13.67 35.77,14.69 7.16,1.12 25.38,6.15 34.1,8.72 8.72,2.57 25.04,4.14 46.51,8.61 21.47,4.47 51.32,7.9 65.11,9.09 13.79,1.19 44.42,5.37 64.47,7.6 20.05,2.23 37.27,2.24 77.52,2.24 40.25,0 93.39,-3.73 103.08,-4.17 9.69,-0.44 49.64,-6.78 62.46,-9.24 12.82,-2.46 59.25,-8.12 73.64,-10.36 14.39,-2.24 64.77,-22.43 64.77,-22.43 0,0 0.36,-0.24 0.78,-0.27 v 0 c 2.04,-1.35 1.68,-3.16 3.32,-7.49 1.64,-4.32 6.78,-7.45 10.21,-15.06 3.43,-7.6 5.22,-11.93 4.47,-29.22 -0.75,-17.29 -7.16,-35.33 -9.74,-58.73 -2.58,-23.4 -3.23,-86.16 0.2,-127.16 3.43,-41 0,-99.58 -0.45,-121.34 -0.45,-21.76 2.39,-52.32 0.45,-91.23 -1.94,-38.91 -3.65,-70.88 -4.55,-92.35 -0.9,-21.47 -1.27,-56.94 -0.89,-73.94 0.37,-16.99 1.42,-23.55 2.83,-32.65 z" />
    <path
       class="st3"
       d="m 371.84,150.8 3.41,-0.73 c 2.69,-0.58 5.35,1.14 5.93,3.83 l 40.86,189.36 c 0.58,2.69 -1.14,5.35 -3.83,5.93 l -3.41,0.73 c -2.69,0.58 -5.35,-1.14 -5.93,-3.83 L 368.01,156.73 c -0.58,-2.69 1.14,-5.35 3.83,-5.93 z m 8.73,3.22 c -0.51,-2.35 -2.84,-3.85 -5.19,-3.35 l -3.41,0.73 c -2.35,0.51 -3.85,2.84 -3.35,5.19 l 40.86,189.36 c 0.51,2.35 2.84,3.85 5.19,3.35 l 3.41,-0.73 c 2.35,-0.51 3.85,-2.84 3.35,-5.19 z"
       id="path5"
       style="fill:#c6c6c6"
       transform="matrix(1.5462923,0,0,1.2724204,343.2137,970.65487)" />
    <path
       class="st1"
       d="m 371.95,165.24 37,171.5 c 0.54,2.53 3.03,4.13 5.56,3.59 v 0 c 2.53,-0.54 4.13,-3.03 3.59,-5.56 l -37,-171.5 c -0.54,-2.53 -3.03,-4.13 -5.56,-3.59 v 0 c -2.53,0.53 -4.14,3.03 -3.59,5.56 z"
       id="path4"
       style="fill:#8e8e8e"
       transform="matrix(1.5462923,0,0,1.2724204,343.2137,970.65487)" />
    <path
       class="st3"
       d="m 373.84,167.28 2.9,13.42 c 0.39,1.8 2.16,2.94 3.96,2.55 v 0 c 1.8,-0.39 2.94,-2.16 2.55,-3.96 l -2.9,-13.42 c -0.39,-1.8 -2.16,-2.94 -3.96,-2.55 v 0 c -1.79,0.4 -2.94,2.17 -2.55,3.96 z"
       id="path6"
       style="fill:#c6c6c6"
       transform="matrix(1.5462923,0,0,1.2724204,343.2137,970.65487)" />
    <path
       class="st3"
       d="M 131.99,156.74 91.13,346.1 c -0.58,2.69 -3.24,4.41 -5.93,3.83 l -3.41,-0.73 c -2.69,-0.58 -4.41,-3.24 -3.83,-5.93 l 40.86,-189.36 c 0.58,-2.69 3.24,-4.41 5.93,-3.83 l 3.41,0.73 c 2.69,0.57 4.41,3.23 3.83,5.93 z M 78.58,343.39 c -0.51,2.35 0.99,4.68 3.35,5.19 l 3.41,0.73 c 2.35,0.51 4.68,-0.99 5.19,-3.35 L 131.39,156.6 c 0.51,-2.35 -0.99,-4.68 -3.35,-5.19 l -3.41,-0.73 c -2.35,-0.51 -4.68,0.99 -5.19,3.35 z"
       id="path2"
       style="fill:#c6c6c6"
       transform="matrix(1.5462923,0,0,1.2724204,343.2137,970.65487)" />
    <path
       class="st1"
       d="m 128.05,165.24 -37,171.5 c -0.54,2.53 -3.03,4.13 -5.56,3.59 v 0 c -2.53,-0.54 -4.13,-3.03 -3.59,-5.56 l 37,-171.5 c 0.54,-2.53 3.03,-4.13 5.56,-3.59 v 0 c 2.53,0.53 4.14,3.03 3.59,5.56 z"
       id="path1"
       style="fill:#8e8e8e"
       transform="matrix(1.5462923,0,0,1.2724204,343.2137,970.65487)" />
    <path
       class="st3"
       d="m 126.16,167.28 -2.9,13.42 c -0.39,1.8 -2.16,2.94 -3.96,2.55 v 0 c -1.8,-0.39 -2.94,-2.16 -2.55,-3.96 l 2.9,-13.42 c 0.39,-1.8 2.16,-2.94 3.96,-2.55 v 0 c 1.79,0.4 2.94,2.17 2.55,3.96 z"
       id="path3"
       style="fill:#c6c6c6"
       transform="matrix(1.5462923,0,0,1.2724204,343.2137,970.65487)" />
  </g>
</svg>
