<?xml version="1.0" encoding="utf-8"?>
<!-- Generator: Adobe Illustrator 26.5.0, SVG Export Plug-In . SVG Version: 6.00 Build 0)  -->
<svg version="1.1" id="Layer_1" xmlns="http://www.w3.org/2000/svg" xmlns:xlink="http://www.w3.org/1999/xlink" x="0px" y="0px"
	 viewBox="0 0 500 500" style="enable-background:new 0 0 500 500;" xml:space="preserve">
<style type="text/css">
	.st0{fill:#F4F3F4;}
	.st1{fill:#8E8E8E;stroke:#C6C6C6;stroke-width:0.9389;stroke-miterlimit:10;}
	.st2{fill:#8E8E8E;stroke:#191919;stroke-width:0.9389;stroke-miterlimit:10;}
	.st3{fill:#8E8E8E;stroke:#939393;stroke-width:0.9389;stroke-miterlimit:10;}
	.st4{fill:#707070;stroke:#C6C6C6;stroke-width:0.9389;stroke-miterlimit:10;}
	.st5{fill:#A0A0A0;stroke:#C6C6C6;stroke-width:0.9389;stroke-miterlimit:10;}
</style>
<g>
	<rect class="st0" width="500" height="500"/>
</g>
<g>
	<path class="st1" d="M255.74,95.06h-11.49c-18.64,0-33.75,15.11-33.75,33.75v50.78c0,7.94,6.44,14.38,14.38,14.38h50.22
		c7.94,0,14.38-6.44,14.38-14.38v-50.78C289.49,110.17,274.38,95.06,255.74,95.06z"/>
	<line class="st1" x1="237.81" y1="95.52" x2="237.81" y2="110.21"/>
	<line class="st1" x1="261.78" y1="95.52" x2="261.78" y2="110.21"/>
	
		<rect x="445.62" y="227.66" transform="matrix(0.9884 0.1518 -0.1518 0.9884 41.5787 -65.9335)" class="st1" width="13.77" height="23.23"/>
	
		<rect x="40.61" y="227.67" transform="matrix(-0.9884 0.1518 -0.1518 -0.9884 130.8758 468.5838)" class="st1" width="13.88" height="23.23"/>
	<path class="st1" d="M173.89,327.1v56.26c0,2.75,1.67,4.97,3.73,4.97h144.76c2.06,0,3.73-2.23,3.73-4.97c0-2.97,0-56.5,0-56.54"/>
	<path class="st2" d="M326.11,368.22c0-0.01,0-122.92,0-124.9c-12.25-21.94-24.5-43.89-36.75-65.83
		c-7.65,10.11-19.6,16.05-32.28,16.05h-13.99c-11.73,0-22.88-5.08-30.57-13.94l-1.83-2.11l-36.8,65.83v124.8"/>
	<path class="st3" d="M289.36,177.49l156.01,47.21c1.5,0.45,2.43,1.94,2.18,3.49l-3.24,20.15c-0.25,1.57-1.64,2.7-3.23,2.63
		l-114.93-5.36l-51.64-56.07L289.36,177.49z"/>
	<rect x="176.7" y="388.3" class="st1" width="146.58" height="16.64"/>
	<path class="st1" d="M210.74,177.49L54.73,224.7c-1.5,0.45-2.43,1.94-2.18,3.49l3.24,20.15c0.25,1.57,1.64,2.7,3.23,2.63
		l114.93-5.36l51.64-56.07L210.74,177.49z"/>
	<path class="st1" d="M326.11,368.22c0-0.01,0-120.63,0-122.61l-51.59-56.07c-3.14,1.67-9.92,3.63-17.45,4h-13.99
		c-11.73,0-17.5-3.15-30.57-13.94l13.07,9.93l-51.7,56.1v122.49"/>
	<path class="st1" d="M289.36,177.49l156.01,47.21c1.5,0.45,2.43,1.94,2.18,3.49l-3.24,20.15c-0.25,1.57-1.64,2.7-3.23,2.63
		l-114.93-5.36l-51.64-56.07L289.36,177.49z"/>
	<path class="st4" d="M223.88,145.36v-11.81c0-14.8,12.11-26.92,26.92-26.92h0c13.98,0,25.32,11.34,25.32,25.32v13.4
		c0,5.25-19,48.29-26.12,48.14C243.23,193.36,223.88,149.84,223.88,145.36z"/>
</g>
</svg>
